<svg width="10" height="10" viewBox="0 0 10 10" fill="none" xmlns="http://www.w3.org/2000/svg">
<path d="M8.93243 7.34138L6.54595 4.95489L8.93243 2.56841C9.22527 2.27557 9.22527 1.80059 8.93243 1.50775L8.4021 0.977419C8.10926 0.684577 7.63428 0.684577 7.34144 0.977419L4.95496 3.3639L2.56847 0.977419C2.27563 0.684577 1.80065 0.684577 1.50781 0.977419L0.97748 1.50775C0.684639 1.80059 0.684639 2.27557 0.97748 2.56841L3.36397 4.95489L0.97748 7.34138C0.684639 7.63422 0.684639 8.1092 0.97748 8.40204L1.50781 8.93237C1.80065 9.22521 2.27563 9.22521 2.56847 8.93237L4.95496 6.54588L7.34144 8.93237C7.63428 9.22521 8.10926 9.22521 8.4021 8.93237L8.93243 8.40204C9.22527 8.1092 9.22527 7.63422 8.93243 7.34138Z" fill="#49B4BB"/>
</svg>
